<mxfile host="65bd71144e">
    <diagram id="P-MN3QzPkG-ntMqrYWgW" name="ページ1">
        <mxGraphModel dx="962" dy="851" grid="1" gridSize="10" guides="1" tooltips="1" connect="1" arrows="1" fold="1" page="1" pageScale="1" pageWidth="827" pageHeight="1169" math="0" shadow="0">
            <root>
                <mxCell id="0"/>
                <mxCell id="1" parent="0"/>
                <mxCell id="10" style="edgeStyle=elbowEdgeStyle;html=1;" parent="1" source="5" target="9" edge="1">
                    <mxGeometry relative="1" as="geometry"/>
                </mxCell>
                <mxCell id="6" value="6-8.4V" style="html=1;elbow=vertical;" parent="1" source="3" target="5" edge="1">
                    <mxGeometry relative="1" as="geometry"/>
                </mxCell>
                <mxCell id="11" value="2.5-20V 1.5A" style="edgeStyle=none;html=1;elbow=vertical;" parent="1" source="4" target="12" edge="1">
                    <mxGeometry relative="1" as="geometry">
                        <mxPoint x="780" y="260" as="targetPoint"/>
                    </mxGeometry>
                </mxCell>
                <mxCell id="4" value="SEPIC" style="rounded=1;whiteSpace=wrap;html=1;" parent="1" vertex="1">
                    <mxGeometry x="600" y="240" width="120" height="40" as="geometry"/>
                </mxCell>
                <mxCell id="7" value="6-8.4V" style="edgeStyle=none;html=1;" parent="1" source="5" target="4" edge="1">
                    <mxGeometry relative="1" as="geometry"/>
                </mxCell>
                <mxCell id="5" value="HS Switch" style="rounded=1;whiteSpace=wrap;html=1;" parent="1" vertex="1">
                    <mxGeometry x="400" y="240" width="120" height="40" as="geometry"/>
                </mxCell>
                <mxCell id="8" value="" style="group" parent="1" vertex="1" connectable="0">
                    <mxGeometry x="400" y="160" width="120" height="40" as="geometry"/>
                </mxCell>
                <mxCell id="2" value="LiPo 100mAh" style="rounded=1;whiteSpace=wrap;html=1;" parent="8" vertex="1">
                    <mxGeometry width="120" height="20" as="geometry"/>
                </mxCell>
                <mxCell id="3" value="LiPo 100mAh" style="rounded=1;whiteSpace=wrap;html=1;" parent="8" vertex="1">
                    <mxGeometry y="20" width="120" height="20" as="geometry"/>
                </mxCell>
                <mxCell id="9" value="3.3V DCDC" style="rounded=1;whiteSpace=wrap;html=1;" parent="1" vertex="1">
                    <mxGeometry x="600" y="320" width="120" height="40" as="geometry"/>
                </mxCell>
                <mxCell id="12" value="駆動系" style="rounded=1;whiteSpace=wrap;html=1;fillColor=#fff2cc;strokeColor=#d6b656;" parent="1" vertex="1">
                    <mxGeometry x="1000" y="240" width="120" height="40" as="geometry"/>
                </mxCell>
                <mxCell id="23" value="3.3V 0.2A" style="edgeStyle=elbowEdgeStyle;html=1;" parent="1" source="9" target="20" edge="1">
                    <mxGeometry x="0.5556" relative="1" as="geometry">
                        <mxPoint x="920" y="420" as="sourcePoint"/>
                        <mxPoint as="offset"/>
                    </mxGeometry>
                </mxCell>
                <mxCell id="22" value="3.3V 0.2A" style="edgeStyle=elbowEdgeStyle;html=1;" parent="1" source="9" target="21" edge="1">
                    <mxGeometry x="0.6364" relative="1" as="geometry">
                        <mxPoint as="offset"/>
                        <mxPoint x="920" y="500" as="sourcePoint"/>
                        <Array as="points">
                            <mxPoint x="860" y="470"/>
                        </Array>
                    </mxGeometry>
                </mxCell>
                <mxCell id="25" value="3.3V 0.2A" style="edgeStyle=elbowEdgeStyle;html=1;entryX=0;entryY=0.5;entryDx=0;entryDy=0;elbow=vertical;" parent="1" source="26" target="24" edge="1">
                    <mxGeometry relative="1" as="geometry">
                        <Array as="points">
                            <mxPoint x="830" y="580"/>
                        </Array>
                        <mxPoint x="660" y="440" as="sourcePoint"/>
                    </mxGeometry>
                </mxCell>
                <mxCell id="20" value="デジタル系" style="rounded=1;whiteSpace=wrap;html=1;fillColor=#fff2cc;strokeColor=#d6b656;" parent="1" vertex="1">
                    <mxGeometry x="1000" y="400" width="120" height="40" as="geometry"/>
                </mxCell>
                <mxCell id="21" value="アナログ系" style="rounded=1;whiteSpace=wrap;html=1;fillColor=#fff2cc;strokeColor=#d6b656;" parent="1" vertex="1">
                    <mxGeometry x="1000" y="480" width="120" height="40" as="geometry"/>
                </mxCell>
                <mxCell id="24" value="IR Emitter" style="rounded=1;whiteSpace=wrap;html=1;fillColor=#fff2cc;strokeColor=#d6b656;" parent="1" vertex="1">
                    <mxGeometry x="1000" y="560" width="120" height="40" as="geometry"/>
                </mxCell>
                <mxCell id="26" value="R-C filter" style="rounded=1;whiteSpace=wrap;html=1;" vertex="1" parent="1">
                    <mxGeometry x="600" y="480" width="120" height="40" as="geometry"/>
                </mxCell>
                <mxCell id="28" value="3.3V 0.2A" style="html=1;" edge="1" parent="1" source="9" target="26">
                    <mxGeometry relative="1" as="geometry">
                        <mxPoint as="offset"/>
                        <mxPoint x="730" y="350" as="sourcePoint"/>
                        <mxPoint x="1010" y="510" as="targetPoint"/>
                    </mxGeometry>
                </mxCell>
            </root>
        </mxGraphModel>
    </diagram>
</mxfile>